<svg width="16" height="15" viewBox="0 0 16 15" fill="none" xmlns="http://www.w3.org/2000/svg">
<path d="M1.83301 0C0.848143 0 0.0469971 0.801201 0.0469971 1.78601C0.0469971 2.77083 0.847811 3.57197 1.83301 3.57197C2.81821 3.57197 3.61903 2.77083 3.61903 1.78601C3.61903 0.801201 2.81782 0 1.83301 0Z" fill="white"/>
<path d="M7.61341 0C6.62859 0 5.82739 0.801201 5.82739 1.78601C5.82739 2.77083 6.62859 3.57197 7.61341 3.57197C8.59828 3.57197 9.39959 2.77083 9.39959 1.78601C9.39959 0.801201 8.59861 0 7.61341 0Z" fill="white"/>
<path d="M13.4873 3.57203C14.472 3.57203 15.2733 2.77088 15.2733 1.78607C15.2733 0.801256 14.4726 0 13.4873 0C12.502 0 11.7013 0.801201 11.7013 1.78601C11.7013 2.77083 12.5026 3.57203 13.4873 3.57203Z" fill="white"/>
<path d="M1.78635 9.29492C2.77116 9.29492 3.57253 8.49394 3.57253 7.50896C3.57253 6.52392 2.77116 5.72278 1.78635 5.72278C0.801533 5.72278 0 6.52398 0 7.50896C0 8.49394 0.801533 9.29492 1.78635 9.29492Z" fill="white"/>
<path d="M7.56678 9.29492C8.55142 9.29492 9.35279 8.49394 9.35279 7.50896C9.35279 6.52392 8.55209 5.72278 7.56678 5.72278C6.58163 5.72278 5.78076 6.52392 5.78076 7.50896C5.78076 8.49394 6.58196 9.29492 7.56678 9.29492Z" fill="white"/>
<path d="M13.4412 9.29492C14.4263 9.29492 15.2272 8.49394 15.2272 7.50896C15.2272 6.52392 14.4263 5.72278 13.4412 5.72278C12.4562 5.72278 11.6545 6.52392 11.6545 7.50896C11.6545 8.49394 12.4559 9.29492 13.4412 9.29492Z" fill="white"/>
<path d="M1.82724 11.428C0.842427 11.428 0.0408936 12.229 0.0408936 13.214C0.0408936 14.1986 0.842427 15 1.82724 15C2.81205 15 3.6132 14.199 3.6132 13.214C3.6132 12.229 2.81205 11.428 1.82724 11.428Z" fill="white"/>
<path d="M7.608 11.428C6.62313 11.428 5.82166 12.229 5.82166 13.214C5.82166 14.1986 6.62286 15 7.608 15C8.59265 15 9.39396 14.199 9.39396 13.214C9.39396 12.229 8.59265 11.428 7.608 11.428Z" fill="white"/>
<path d="M13.4817 11.428C12.497 11.428 11.6957 12.229 11.6957 13.214C11.6957 14.1986 12.497 15 13.4817 15C14.4667 15 15.2677 14.199 15.2677 13.214C15.2677 12.229 14.4663 11.428 13.4817 11.428Z" fill="white"/>
</svg>
